<?xml version="1.0" encoding="UTF-8" standalone="no"?>
<!DOCTYPE svg PUBLIC "-//W3C//DTD SVG 1.1//EN" "http://www.w3.org/Graphics/SVG/1.1/DTD/svg11.dtd">
<!-- 由 Microsoft Visio, SVG Export 生成 格雷码.svg Page-1 -->
<svg xmlns="http://www.w3.org/2000/svg" xmlns:xlink="http://www.w3.org/1999/xlink" xmlns:ev="http://www.w3.org/2001/xml-events"
		xmlns:v="http://schemas.microsoft.com/visio/2003/SVGExtensions/" width="11.6929in" height="8.26772in"
		viewBox="0 0 841.89 595.276" xml:space="preserve" color-interpolation-filters="sRGB" class="st11">
	<v:documentProperties v:langID="2052" v:metric="true" v:viewMarkup="false">
		<v:userDefs>
			<v:ud v:nameU="msvSubprocessMaster" v:prompt="" v:val="VT4(Rectangle)"/>
			<v:ud v:nameU="msvNoAutoConnect" v:val="VT0(1):26"/>
		</v:userDefs>
	</v:documentProperties>

	<style type="text/css">
	<![CDATA[
		.st1 {marker-start:url(#mrkr13-6);stroke:#000000;stroke-linecap:round;stroke-linejoin:round;stroke-width:1.5}
		.st2 {fill:#000000;fill-opacity:1;stroke:#000000;stroke-opacity:1;stroke-width:0.37313432835821}
		.st3 {fill:none;stroke:none;stroke-width:0.25}
		.st4 {fill:#000000;font-family:Calibri;font-size:1.33333em;font-weight:bold}
		.st5 {visibility:visible}
		.st6 {fill:none;filter:url(#filter_2);stroke:#5b9bd5;stroke-dasharray:0.01,1.25;stroke-opacity:0.22}
		.st7 {fill:none;stroke:#000000;stroke-dasharray:0.01,1.25;stroke-width:0.25}
		.st8 {fill:#5b9bd5;fill-opacity:0.22;filter:url(#filter_2);stroke:#5b9bd5;stroke-opacity:0.22}
		.st9 {fill:#000000;stroke:#000000;stroke-width:0.25}
		.st10 {fill:#000000;font-family:黑体;font-size:1.33333em;font-weight:bold}
		.st11 {fill:none;fill-rule:evenodd;font-size:12px;overflow:visible;stroke-linecap:square;stroke-miterlimit:3}
	]]>
	</style>

	<defs id="Markers">
		<g id="lend13">
			<path d="M 3 1 L 0 0 L 3 -1 L 3 1 " style="stroke:none"/>
		</g>
		<marker id="mrkr13-6" class="st2" v:arrowType="13" v:arrowSize="2" v:setback="7.8" refX="7.8" orient="auto"
				markerUnits="strokeWidth" overflow="visible">
			<use xlink:href="#lend13" transform="scale(2.68) "/>
		</marker>
	</defs>
	<defs id="Filters">
		<filter id="filter_2">
			<feGaussianBlur stdDeviation="2"/>
		</filter>
	</defs>
	<g v:mID="0" v:index="1" v:groupContext="foregroundPage">
		<v:userDefs>
			<v:ud v:nameU="msvThemeOrder" v:val="VT0(0):26"/>
		</v:userDefs>
		<title>页-1</title>
		<v:pageProperties v:drawingScale="0.0393701" v:pageScale="0.0393701" v:drawingUnits="24" v:shadowOffsetX="8.50394"
				v:shadowOffsetY="-8.50394"/>
		<g id="shape1-1" v:mID="1" v:groupContext="shape" transform="translate(790.441,120.472) rotate(90)">
			<title>工作表.1</title>
			<path d="M11.7 595.28 L12.06 595.28 L325.98 595.28" class="st1"/>
		</g>
		<g id="shape2-7" v:mID="2" v:groupContext="shape" transform="translate(386.504,885.827) rotate(180)">
			<title>工作表.2</title>
			<path d="M11.7 595.28 L12.06 595.28 L368.5 595.28" class="st1"/>
		</g>
		<g id="shape9-12" v:mID="9" v:groupContext="shape" transform="translate(188.079,-439.37)">
			<title>工作表.9</title>
			<desc>Q</desc>
			<v:textBlock v:margins="rect(4,4,4,4)" v:tabSpace="42.5197"/>
			<v:textRect cx="35.4331" cy="574.016" width="70.87" height="42.5197"/>
			<rect x="0" y="552.756" width="70.8661" height="42.5197" class="st3"/>
			<text x="29.94" y="578.82" class="st4" v:langID="2052"><v:paragraph v:horizAlign="1"/><v:tabList/>Q</text>		</g>
		<g id="shape10-15" v:mID="10" v:groupContext="shape" transform="translate(351.071,-255.118)">
			<title>工作表.10</title>
			<desc>I</desc>
			<v:textBlock v:margins="rect(4,4,4,4)" v:tabSpace="42.5197"/>
			<v:textRect cx="35.4331" cy="574.016" width="70.87" height="42.5197"/>
			<rect x="0" y="552.756" width="70.8661" height="42.5197" class="st3"/>
			<text x="33.3" y="578.82" class="st4" v:langID="2052"><v:paragraph v:horizAlign="1"/><v:tabList/>I</text>		</g>
		<g id="shape11-18" v:mID="11" v:groupContext="shape" transform="translate(145.559,-262.205)">
			<title>工作表.11</title>
			<desc>0</desc>
			<v:textBlock v:margins="rect(4,4,4,4)" v:tabSpace="42.5197"/>
			<v:textRect cx="35.4331" cy="574.016" width="70.87" height="42.5197"/>
			<rect x="0" y="552.756" width="70.8661" height="42.5197" class="st3"/>
			<text x="31.38" y="578.82" class="st4" v:langID="2052"><v:paragraph v:horizAlign="1"/><v:tabList/>0</text>		</g>
		<g id="shape12-21" v:mID="12" v:groupContext="shape" transform="translate(81.7795,-191.339)">
			<title>工作表.12</title>
			<g id="shadow12-22" v:groupContext="shadow" v:shadowOffsetX="0.345598" v:shadowOffsetY="-1.97279" v:shadowType="1"
					transform="matrix(1,0,0,1,0.345598,1.97279)" class="st5">
				<ellipse cx="120.472" cy="474.803" rx="120.472" ry="120.472" class="st6"/>
			</g>
			<ellipse cx="120.472" cy="474.803" rx="120.472" ry="120.472" class="st7"/>
		</g>
		<g id="shape13-26" v:mID="13" v:groupContext="shape" transform="translate(110.126,-389.764)">
			<title>圆形</title>
			<v:userDefs>
				<v:ud v:nameU="visVersion" v:val="VT0(15):26"/>
			</v:userDefs>
			<g id="shadow13-27" v:groupContext="shadow" v:shadowOffsetX="0.345598" v:shadowOffsetY="-1.97279" v:shadowType="1"
					transform="matrix(1,0,0,1,0.345598,1.97279)" class="st5">
				<path d="M0 588.19 A7.08661 7.08661 0 0 1 14.17 588.19 A7.08661 7.08661 0 1 1 0 588.19 Z" class="st8"/>
			</g>
			<path d="M0 588.19 A7.08661 7.08661 0 0 1 14.17 588.19 A7.08661 7.08661 0 1 1 0 588.19 Z" class="st9"/>
		</g>
		<g id="shape14-31" v:mID="14" v:groupContext="shape" transform="translate(280.205,-389.764)">
			<title>圆形.14</title>
			<v:userDefs>
				<v:ud v:nameU="visVersion" v:val="VT0(15):26"/>
			</v:userDefs>
			<g id="shadow14-32" v:groupContext="shadow" v:shadowOffsetX="0.345598" v:shadowOffsetY="-1.97279" v:shadowType="1"
					transform="matrix(1,0,0,1,0.345598,1.97279)" class="st5">
				<path d="M0 588.19 A7.08661 7.08661 0 0 1 14.17 588.19 A7.08661 7.08661 0 1 1 0 588.19 Z" class="st8"/>
			</g>
			<path d="M0 588.19 A7.08661 7.08661 0 0 1 14.17 588.19 A7.08661 7.08661 0 1 1 0 588.19 Z" class="st9"/>
		</g>
		<g id="shape15-36" v:mID="15" v:groupContext="shape" transform="translate(110.126,-212.598)">
			<title>圆形.15</title>
			<v:userDefs>
				<v:ud v:nameU="visVersion" v:val="VT0(15):26"/>
			</v:userDefs>
			<g id="shadow15-37" v:groupContext="shadow" v:shadowOffsetX="0.345598" v:shadowOffsetY="-1.97279" v:shadowType="1"
					transform="matrix(1,0,0,1,0.345598,1.97279)" class="st5">
				<path d="M0 588.19 A7.08661 7.08661 0 0 1 14.17 588.19 A7.08661 7.08661 0 1 1 0 588.19 Z" class="st8"/>
			</g>
			<path d="M0 588.19 A7.08661 7.08661 0 0 1 14.17 588.19 A7.08661 7.08661 0 1 1 0 588.19 Z" class="st9"/>
		</g>
		<g id="shape16-41" v:mID="16" v:groupContext="shape" transform="translate(273.118,-212.598)">
			<title>圆形.16</title>
			<v:userDefs>
				<v:ud v:nameU="visVersion" v:val="VT0(15):26"/>
			</v:userDefs>
			<g id="shadow16-42" v:groupContext="shadow" v:shadowOffsetX="0.345598" v:shadowOffsetY="-1.97279" v:shadowType="1"
					transform="matrix(1,0,0,1,0.345598,1.97279)" class="st5">
				<path d="M0 588.19 A7.08661 7.08661 0 0 1 14.17 588.19 A7.08661 7.08661 0 1 1 0 588.19 Z" class="st8"/>
			</g>
			<path d="M0 588.19 A7.08661 7.08661 0 0 1 14.17 588.19 A7.08661 7.08661 0 1 1 0 588.19 Z" class="st9"/>
		</g>
		<g id="shape17-46" v:mID="17" v:groupContext="shape" transform="translate(287.291,-389.764)">
			<title>工作表.17</title>
			<desc>00</desc>
			<v:textBlock v:margins="rect(4,4,4,4)" v:tabSpace="42.5197"/>
			<v:textRect cx="35.4331" cy="574.016" width="70.87" height="42.5197"/>
			<rect x="0" y="552.756" width="70.8661" height="42.5197" class="st3"/>
			<text x="27.32" y="578.82" class="st4" v:langID="2052"><v:paragraph v:horizAlign="1"/><v:tabList/>00</text>		</g>
		<g id="shape18-49" v:mID="18" v:groupContext="shape" transform="translate(280.205,-191.339)">
			<title>工作表.18</title>
			<desc>11</desc>
			<v:textBlock v:margins="rect(4,4,4,4)" v:tabSpace="42.5197"/>
			<v:textRect cx="35.4331" cy="574.016" width="70.87" height="42.5197"/>
			<rect x="0" y="552.756" width="70.8661" height="42.5197" class="st3"/>
			<text x="27.32" y="578.82" class="st4" v:langID="2052"><v:paragraph v:horizAlign="1"/><v:tabList/>11</text>		</g>
		<g id="shape19-52" v:mID="19" v:groupContext="shape" transform="translate(81.7795,-162.992)">
			<title>工作表.19</title>
			<desc>10</desc>
			<v:textBlock v:margins="rect(4,4,4,4)" v:tabSpace="42.5197"/>
			<v:textRect cx="35.4331" cy="574.016" width="70.87" height="42.5197"/>
			<rect x="0" y="552.756" width="70.8661" height="42.5197" class="st3"/>
			<text x="27.32" y="578.82" class="st4" v:langID="2052"><v:paragraph v:horizAlign="1"/><v:tabList/>10</text>		</g>
		<g id="shape20-55" v:mID="20" v:groupContext="shape" transform="translate(53.4331,-389.764)">
			<title>工作表.20</title>
			<desc>01</desc>
			<v:textBlock v:margins="rect(4,4,4,4)" v:tabSpace="42.5197"/>
			<v:textRect cx="35.4331" cy="574.016" width="70.87" height="42.5197"/>
			<rect x="0" y="552.756" width="70.8661" height="42.5197" class="st3"/>
			<text x="27.32" y="578.82" class="st4" v:langID="2052"><v:paragraph v:horizAlign="1"/><v:tabList/>01</text>		</g>
		<g id="shape22-58" v:mID="22" v:groupContext="shape" transform="translate(1172.55,127.559) rotate(90)">
			<title>工作表.22</title>
			<path d="M11.7 595.28 L12.06 595.28 L325.98 595.28" class="st1"/>
		</g>
		<g id="shape23-63" v:mID="23" v:groupContext="shape" transform="translate(570.189,-432.283)">
			<title>工作表.23</title>
			<desc>Q</desc>
			<v:textBlock v:margins="rect(4,4,4,4)" v:tabSpace="42.5197"/>
			<v:textRect cx="35.4331" cy="574.016" width="70.87" height="42.5197"/>
			<rect x="0" y="552.756" width="70.8661" height="42.5197" class="st3"/>
			<text x="29.94" y="578.82" class="st4" v:langID="2052"><v:paragraph v:horizAlign="1"/><v:tabList/>Q</text>		</g>
		<g id="shape24-66" v:mID="24" v:groupContext="shape" transform="translate(708.661,-248.031)">
			<title>工作表.24</title>
			<desc>I</desc>
			<v:textBlock v:margins="rect(4,4,4,4)" v:tabSpace="42.5197"/>
			<v:textRect cx="35.4331" cy="574.016" width="70.87" height="42.5197"/>
			<rect x="0" y="552.756" width="70.8661" height="42.5197" class="st3"/>
			<text x="33.3" y="578.82" class="st4" v:langID="2052"><v:paragraph v:horizAlign="1"/><v:tabList/>I</text>		</g>
		<g id="shape25-69" v:mID="25" v:groupContext="shape" transform="translate(527.669,-255.118)">
			<title>工作表.25</title>
			<desc>0</desc>
			<v:textBlock v:margins="rect(4,4,4,4)" v:tabSpace="42.5197"/>
			<v:textRect cx="35.4331" cy="574.016" width="70.87" height="42.5197"/>
			<rect x="0" y="552.756" width="70.8661" height="42.5197" class="st3"/>
			<text x="31.38" y="578.82" class="st4" v:langID="2052"><v:paragraph v:horizAlign="1"/><v:tabList/>0</text>		</g>
		<g id="shape26-72" v:mID="26" v:groupContext="shape" transform="translate(463.89,-184.252)">
			<title>工作表.26</title>
			<g id="shadow26-73" v:groupContext="shadow" v:shadowOffsetX="0.345598" v:shadowOffsetY="-1.97279" v:shadowType="1"
					transform="matrix(1,0,0,1,0.345598,1.97279)" class="st5">
				<ellipse cx="120.472" cy="474.803" rx="120.472" ry="120.472" class="st6"/>
			</g>
			<ellipse cx="120.472" cy="474.803" rx="120.472" ry="120.472" class="st7"/>
		</g>
		<g id="shape27-77" v:mID="27" v:groupContext="shape" transform="translate(492.236,-382.677)">
			<title>圆形.27</title>
			<v:userDefs>
				<v:ud v:nameU="visVersion" v:val="VT0(15):26"/>
			</v:userDefs>
			<g id="shadow27-78" v:groupContext="shadow" v:shadowOffsetX="0.345598" v:shadowOffsetY="-1.97279" v:shadowType="1"
					transform="matrix(1,0,0,1,0.345598,1.97279)" class="st5">
				<path d="M0 588.19 A7.08661 7.08661 0 0 1 14.17 588.19 A7.08661 7.08661 0 1 1 0 588.19 Z" class="st8"/>
			</g>
			<path d="M0 588.19 A7.08661 7.08661 0 0 1 14.17 588.19 A7.08661 7.08661 0 1 1 0 588.19 Z" class="st9"/>
		</g>
		<g id="shape28-82" v:mID="28" v:groupContext="shape" transform="translate(662.315,-382.677)">
			<title>圆形.28</title>
			<v:userDefs>
				<v:ud v:nameU="visVersion" v:val="VT0(15):26"/>
			</v:userDefs>
			<g id="shadow28-83" v:groupContext="shadow" v:shadowOffsetX="0.345598" v:shadowOffsetY="-1.97279" v:shadowType="1"
					transform="matrix(1,0,0,1,0.345598,1.97279)" class="st5">
				<path d="M0 588.19 A7.08661 7.08661 0 0 1 14.17 588.19 A7.08661 7.08661 0 1 1 0 588.19 Z" class="st8"/>
			</g>
			<path d="M0 588.19 A7.08661 7.08661 0 0 1 14.17 588.19 A7.08661 7.08661 0 1 1 0 588.19 Z" class="st9"/>
		</g>
		<g id="shape29-87" v:mID="29" v:groupContext="shape" transform="translate(492.236,-205.512)">
			<title>圆形.29</title>
			<v:userDefs>
				<v:ud v:nameU="visVersion" v:val="VT0(15):26"/>
			</v:userDefs>
			<g id="shadow29-88" v:groupContext="shadow" v:shadowOffsetX="0.345598" v:shadowOffsetY="-1.97279" v:shadowType="1"
					transform="matrix(1,0,0,1,0.345598,1.97279)" class="st5">
				<path d="M0 588.19 A7.08661 7.08661 0 0 1 14.17 588.19 A7.08661 7.08661 0 1 1 0 588.19 Z" class="st8"/>
			</g>
			<path d="M0 588.19 A7.08661 7.08661 0 0 1 14.17 588.19 A7.08661 7.08661 0 1 1 0 588.19 Z" class="st9"/>
		</g>
		<g id="shape30-92" v:mID="30" v:groupContext="shape" transform="translate(655.228,-205.512)">
			<title>圆形.30</title>
			<v:userDefs>
				<v:ud v:nameU="visVersion" v:val="VT0(15):26"/>
			</v:userDefs>
			<g id="shadow30-93" v:groupContext="shadow" v:shadowOffsetX="0.345598" v:shadowOffsetY="-1.97279" v:shadowType="1"
					transform="matrix(1,0,0,1,0.345598,1.97279)" class="st5">
				<path d="M0 588.19 A7.08661 7.08661 0 0 1 14.17 588.19 A7.08661 7.08661 0 1 1 0 588.19 Z" class="st8"/>
			</g>
			<path d="M0 588.19 A7.08661 7.08661 0 0 1 14.17 588.19 A7.08661 7.08661 0 1 1 0 588.19 Z" class="st9"/>
		</g>
		<g id="shape31-97" v:mID="31" v:groupContext="shape" transform="translate(669.402,-382.677)">
			<title>工作表.31</title>
			<desc>00</desc>
			<v:textBlock v:margins="rect(4,4,4,4)" v:tabSpace="42.5197"/>
			<v:textRect cx="35.4331" cy="574.016" width="70.87" height="42.5197"/>
			<rect x="0" y="552.756" width="70.8661" height="42.5197" class="st3"/>
			<text x="27.32" y="578.82" class="st4" v:langID="2052"><v:paragraph v:horizAlign="1"/><v:tabList/>00</text>		</g>
		<g id="shape32-100" v:mID="32" v:groupContext="shape" transform="translate(662.315,-184.252)">
			<title>工作表.32</title>
			<desc>10</desc>
			<v:textBlock v:margins="rect(4,4,4,4)" v:tabSpace="42.5197"/>
			<v:textRect cx="35.4331" cy="574.016" width="70.87" height="42.5197"/>
			<rect x="0" y="552.756" width="70.8661" height="42.5197" class="st3"/>
			<text x="27.32" y="578.82" class="st4" v:langID="2052"><v:paragraph v:horizAlign="1"/><v:tabList/>10</text>		</g>
		<g id="shape33-103" v:mID="33" v:groupContext="shape" transform="translate(463.89,-155.906)">
			<title>工作表.33</title>
			<desc>11</desc>
			<v:textBlock v:margins="rect(4,4,4,4)" v:tabSpace="42.5197"/>
			<v:textRect cx="35.4331" cy="574.016" width="70.87" height="42.5197"/>
			<rect x="0" y="552.756" width="70.8661" height="42.5197" class="st3"/>
			<text x="27.32" y="578.82" class="st4" v:langID="2052"><v:paragraph v:horizAlign="1"/><v:tabList/>11</text>		</g>
		<g id="shape34-106" v:mID="34" v:groupContext="shape" transform="translate(435.543,-382.677)">
			<title>工作表.34</title>
			<desc>01</desc>
			<v:textBlock v:margins="rect(4,4,4,4)" v:tabSpace="42.5197"/>
			<v:textRect cx="35.4331" cy="574.016" width="70.87" height="42.5197"/>
			<rect x="0" y="552.756" width="70.8661" height="42.5197" class="st3"/>
			<text x="27.32" y="578.82" class="st4" v:langID="2052"><v:paragraph v:horizAlign="1"/><v:tabList/>01</text>		</g>
		<g id="shape35-109" v:mID="35" v:groupContext="shape" transform="translate(779.528,885.827) rotate(180)">
			<title>工作表.35</title>
			<path d="M11.7 595.28 L12.06 595.28 L368.5 595.28" class="st1"/>
		</g>
		<g id="shape37-114" v:mID="37" v:groupContext="shape" transform="translate(269.291,-432.283)">
			<title>工作表.37</title>
			<desc>格雷码</desc>
			<v:textBlock v:margins="rect(4,4,4,4)" v:tabSpace="42.5197"/>
			<v:textRect cx="35.4331" cy="577.559" width="70.87" height="35.4331"/>
			<rect x="0" y="559.843" width="70.8661" height="35.4331" class="st3"/>
			<text x="11.34" y="582.88" class="st10" v:langID="2052"><v:paragraph v:horizAlign="1"/><v:tabList/>格雷码</text>		</g>
		<g id="shape67-117" v:mID="67" v:groupContext="shape" transform="translate(633.969,-411.024)">
			<title>工作表.67</title>
			<desc>普通码</desc>
			<v:textBlock v:margins="rect(4,4,4,4)" v:tabSpace="42.5197"/>
			<v:textRect cx="35.4331" cy="577.559" width="70.87" height="35.4331"/>
			<rect x="0" y="559.843" width="70.8661" height="35.4331" class="st3"/>
			<text x="11.34" y="582.88" class="st10" v:langID="2052"><v:paragraph v:horizAlign="1"/><v:tabList/>普通码</text>		</g>
	</g>
</svg>
